<?xml version="1.0" encoding="iso-8859-1"?>
<!-- Generator: Adobe Illustrator 19.0.0, SVG Export Plug-In . SVG Version: 6.00 Build 0)  -->
<svg xmlns="http://www.w3.org/2000/svg" xmlns:xlink="http://www.w3.org/1999/xlink" version="1.1" id="Capa_1" x="0px" y="0px" viewBox="0 0 194.56 194.56" style="enable-background:new 0 0 194.56 194.56;" xml:space="preserve" width="512px" height="512px">
<g>
	<g>
		<path d="M73.428,166.183c-1.862-0.283-3.606,0.992-3.891,2.857c-0.287,1.864,0.992,3.604,2.855,3.891    c9.144,1.403,12.942,4.775,12.942,6.269c0,2.406-7.776,6.827-20.48,6.827c-12.704,0-20.48-4.42-20.48-6.827    c0-1.534,3.908-4.965,13.322-6.327c1.865-0.271,3.161-2.002,2.889-3.867c-0.271-1.865-2.012-3.151-3.867-2.889    c-11.824,1.71-19.171,6.724-19.171,13.083c0,6.786,9.38,13.653,27.307,13.653S92.16,185.986,92.16,179.2    C92.16,172.943,84.982,167.957,73.428,166.183z" fill="#FFFFFF"/>
	</g>
</g>
<g>
	<g>
		<g>
			<path d="M30.72,56.32c0,18.821,15.312,34.133,34.133,34.133c18.821,0,34.133-15.312,34.133-34.133     c0-18.821-15.312-34.133-34.133-34.133C46.032,22.187,30.72,37.499,30.72,56.32z M92.16,56.32     c0,15.056-12.25,27.307-27.307,27.307c-15.056,0-27.307-12.25-27.307-27.307s12.25-27.307,27.307-27.307     S92.16,41.264,92.16,56.32z" fill="#FFFFFF"/>
			<path d="M125.92,44.334C116.707,18.837,92.167,1.707,64.853,1.707C29.094,1.707,0,30.57,0,66.048     c0,27.58,38.965,82.208,55.603,105.537c2.464,3.458,4.816,6.755,5.758,8.207c0.09,0.3,0.244,0.597,0.427,0.954     c0.585,1.137,1.787,1.867,3.065,1.867c1.278,0,2.48-0.73,3.065-1.869c0.183-0.357,0.336-0.655,0.427-0.954     c0.942-1.454,3.294-4.753,5.762-8.212c8.305-11.645,22.205-31.135,34.176-51.424c0.959-1.623,0.418-3.715-1.205-4.675     c-1.625-0.956-3.715-0.416-4.675,1.207c-11.82,20.033-25.614,39.373-33.855,50.929c-1.504,2.109-2.72,3.814-3.695,5.207     c-0.975-1.393-2.19-3.096-3.693-5.202C46.3,146.785,6.827,91.441,6.827,66.048c0-31.713,26.03-57.515,58.027-57.515     c24.446,0,46.406,15.319,54.646,38.122c0.64,1.772,2.594,2.688,4.371,2.05C125.643,48.063,126.561,46.107,125.92,44.334z" fill="#FFFFFF"/>
		</g>
	</g>
</g>
<g>
	<g>
		<path d="M191.889,104.189L143.36,93.38V52.907c0-7.528-6.125-13.653-13.653-13.653c-7.528,0-13.653,6.125-13.653,13.653v40.521    l-48.527,10.759c-1.563,0.346-2.674,1.732-2.674,3.333v13.653c0,0.971,0.413,1.896,1.137,2.543    c0.722,0.649,1.681,0.954,2.654,0.85l47.409-5.257v40.369l-7.904,2.628c-1.394,0.464-2.336,1.77-2.336,3.239V179.2    c0,1.097,0.527,2.127,1.417,2.768s2.033,0.814,3.074,0.471l19.448-6.468l19.355,6.467c0.353,0.118,0.719,0.176,1.082,0.176    c0.707,0,1.406-0.22,1.995-0.643c0.889-0.642,1.418-1.673,1.418-2.77v-13.653c0-1.468-0.939-2.773-2.331-3.238l-7.909-2.642    v-40.381l47.408,5.28c0.973,0.104,1.93-0.203,2.656-0.85c0.724-0.647,1.137-1.572,1.137-2.543V107.52    C194.56,105.921,193.451,104.535,191.889,104.189z M187.733,117.359l-47.406-5.28c-0.976-0.111-1.932,0.203-2.656,0.85    s-1.137,1.572-1.137,2.543v46.653c0,1.468,0.939,2.773,2.331,3.238l7.909,2.642v6.456l-15.94-5.325    c-0.701-0.234-1.461-0.234-2.159-0.002l-16.036,5.333v-6.46l7.904-2.627c1.394-0.464,2.336-1.77,2.336-3.239v-46.645    c0-0.971-0.413-1.896-1.137-2.543c-0.722-0.649-1.683-0.957-2.654-0.85l-47.409,5.257v-7.101L120.206,99.5    c1.563-0.346,2.674-1.732,2.674-3.333V52.907c0-3.765,3.062-6.827,6.827-6.827s6.827,3.062,6.827,6.827v43.209    c0,1.599,1.109,2.983,2.671,3.331l48.529,10.808V117.359z" fill="#FFFFFF"/>
	</g>
</g>
<g>
</g>
<g>
</g>
<g>
</g>
<g>
</g>
<g>
</g>
<g>
</g>
<g>
</g>
<g>
</g>
<g>
</g>
<g>
</g>
<g>
</g>
<g>
</g>
<g>
</g>
<g>
</g>
<g>
</g>
</svg>
