<?xml version="1.0"?>
<svg xmlns="http://www.w3.org/2000/svg" xmlns:xlink="http://www.w3.org/1999/xlink" version="1.1" id="Capa_1" x="0px" y="0px" viewBox="0 0 512.011 512.011" style="enable-background:new 0 0 512.011 512.011;" xml:space="preserve" width="512px" height="512px" class=""><g><g>
	<g>
		<path d="M391.899,402.27l-21.254,78.573c-1.408,8.046-8.379,13.967-16.424,14.095H156.121    c-8.199-0.094-15.187-6.024-16.774-14.855l-21.075-77.814l-16.476,4.462l20.912,77.054c2.841,16.16,16.817,28.028,33.318,28.216    h198.322c16.356-0.247,30.272-12.107,32.934-27.457l21.083-77.814L391.899,402.27z" data-original="#000000" class="active-path" data-old_color="#FDF4F4" fill="#FBFBFB"/>
	</g>
</g><g>
	<g>
		<rect x="246.639" y="21.827" width="17.064" height="481.642" data-original="#000000" class="active-path" data-old_color="#FDF4F4" fill="#FBFBFB"/>
	</g>
</g><g>
	<g>
		
			<rect x="144.247" y="94.877" transform="matrix(0.9164 -0.4002 0.4002 0.9164 -110.5255 86.8915)" width="17.064" height="426.394" data-original="#000000" class="active-path" data-old_color="#FDF4F4" fill="#FBFBFB"/>
	</g>
</g><g>
	<g>
		
			<rect x="191.138" y="44.243" transform="matrix(0.9793 -0.2023 0.2023 0.9793 -51.7531 46.1053)" width="17.064" height="463.97" data-original="#000000" class="active-path" data-old_color="#FDF4F4" fill="#FBFBFB"/>
	</g>
</g><g>
	<g>
		
			<rect x="114.385" y="185.86" transform="matrix(0.7974 -0.6035 0.6035 0.7974 -193.8972 147.6438)" width="17.065" height="353.414" data-original="#000000" class="active-path" data-old_color="#FDF4F4" fill="#FBFBFB"/>
	</g>
</g><g>
	<g>
		<path d="M510.522,249.27c-0.802-9.462-2.747-18.796-5.768-27.806c9.855-44.504-10.691-90.723-50.767-113.214l-2.21-1.177    c-11.339-33.856-40.98-58.898-76.611-64.256l-10.017-1.34l-0.085-0.179C345.757,3.91,299.658-10.808,262.304,8.492    c-2.159,1.109-4.275,2.329-6.322,3.652c-15.819-9.94-34.487-13.737-53.113-10.716c-20.247,3.293-37.994,14.283-49.973,30.921    c-2.031,2.807-3.882,5.785-5.358,8.583l-10.768,1.894c-35.417,5.281-65.058,30.195-76.466,63.949l-2.483,1.297    C17.814,130.536-2.698,176.849,7.302,221.43c-3.106,9.061-5.068,18.481-5.853,28.079c-3.14,41.441,11.911,82.063,41.876,111.977    l147.718,122.616c16.527,17.636,39.828,27.798,64.017,27.909l0.077-17.064c-19.675-0.094-38.617-8.43-51.961-22.858    c-0.256-0.273-0.529-0.537-0.819-0.776L54.818,348.892c-25.861-25.87-39.103-61.62-36.347-98.043    c0.725-8.891,2.654-17.636,5.734-25.989c0.589-1.613,0.683-3.362,0.264-5.025c-9.513-37.909,7.645-77.745,41.509-96.764    l5.375-2.816c2.048-1.075,3.566-2.927,4.223-5.145c8.618-29.18,33.634-50.929,63.744-55.408l14.675-2.218    c2.56-0.392,4.812-1.92,6.109-4.164l2.372-4.112c1.263-2.389,2.696-4.701,4.275-6.885c9.317-12.943,23.122-21.493,38.873-24.052    c15.75-2.568,31.544,1.169,44.487,10.486c1.45,1.041,3.191,1.604,4.983,1.604h1.877c1.826,0,3.609-0.589,5.077-1.672    c2.56-1.886,5.273-3.583,8.08-5.025c28.992-14.974,64.793-3.541,79.597,25.102l1.877,4.095c1.212,2.662,3.72,4.522,6.621,4.906    l14.539,1.945c30.153,4.539,55.169,26.382,63.727,55.647c0.648,2.201,2.15,4.061,4.181,5.136l5.128,2.722    c33.984,19.069,51.176,58.812,41.791,96.644c-0.41,1.638-0.316,3.362,0.256,4.949c3.003,8.353,4.906,17.064,5.657,25.853    c2.892,36.535-10.298,72.37-35.596,97.788l-148.11,122.855c-0.282,0.23-0.555,0.495-0.811,0.759    c-13.404,14.445-32.371,22.772-52.063,22.875l0.085,17.064c24.197-0.119,47.533-10.281,64.119-27.892l148.29-123.06    C498.825,331.563,513.816,290.848,510.522,249.27z" data-original="#000000" class="active-path" data-old_color="#FDF4F4" fill="#FBFBFB"/>
	</g>
</g><g>
	<g>
		
			<rect x="146.158" y="299.564" transform="matrix(0.4005 -0.9163 0.9163 0.4005 -66.8668 513.9832)" width="426.406" height="17.056" data-original="#000000" class="active-path" data-old_color="#FDF4F4" fill="#FBFBFB"/>
	</g>
</g><g>
	<g>
		
			<rect x="80.424" y="267.724" transform="matrix(0.2021 -0.9794 0.9794 0.2021 -21.272 526.4034)" width="463.997" height="17.065" data-original="#000000" class="active-path" data-old_color="#FDF4F4" fill="#FBFBFB"/>
	</g>
</g><g>
	<g>
		
			<rect x="212.493" y="353.994" transform="matrix(0.6037 -0.7972 0.7972 0.6037 -134.7701 453.9329)" width="353.4" height="17.056" data-original="#000000" class="active-path" data-old_color="#FDF4F4" fill="#FBFBFB"/>
	</g>
</g></g> </svg>
