<?xml version="1.0" encoding="iso-8859-1"?>
<!-- Generator: Adobe Illustrator 16.0.0, SVG Export Plug-In . SVG Version: 6.00 Build 0)  -->
<!DOCTYPE svg PUBLIC "-//W3C//DTD SVG 1.1//EN" "http://www.w3.org/Graphics/SVG/1.1/DTD/svg11.dtd">
<svg version="1.1" id="Capa_1" xmlns="http://www.w3.org/2000/svg" xmlns:xlink="http://www.w3.org/1999/xlink" x="0px" y="0px"
	 width="636.925px" height="636.925px" viewBox="0 0 636.925 636.925" style="enable-background:new 0 0 636.925 636.925;"
	 xml:space="preserve">
<g>
	<g>
		<g>
			<path d="M528.144,326.918h-13.518h-31.138v-5.008c0-8.295-6.729-15.01-15.015-15.01H168.458c-8.285,0-14.995,6.715-14.995,15.01
				v5.008h-39.175h-5.946h-0.798c-10.415,0-0.209-6.982-0.029-7.089c5.3-2.99,11.752-6.506,18.302-9.793l191.898-95.951
				l-0.613,0.739l0.01-0.01l0.496,0.268l190.444,94.964l3.19,1.906l10.405,5.713c0.059,0.01,0.097,0.044,0.136,0.063l6.341,3.481
				C528.144,321.2,537.673,326.918,528.144,326.918L528.144,326.918z M443.481,606.206H196.728c-6.798,0-12.336-5.523-12.336-12.331
				v-40.707h271.431v40.707C455.822,600.683,450.289,606.206,443.481,606.206L443.481,606.206z M455.822,521.913H184.401V347.126
				c0-6.029,4.42-10.834,10.167-11.884l24.647-0.447h224.266c6.808,0,12.341,5.523,12.341,12.331V521.913L455.822,521.913z
				 M575.297,309.302l-75.56-40.352l-166.551-81.651v-42.671c0-11.014,11.776-15.832,11.776-15.832l0.02-0.111
				c23.339-10.576,39.646-33.876,39.646-61.191C384.629,30.224,354.405,0,317.122,0c-29.854,0-54.91,19.469-63.744,46.342
				c-0.048,0.253-3.073,12.103,5.281,12.103h13.045c2.14-0.189,6.024-1.356,9.049-7.089c0-0.044,0.029-0.044,0.054-0.103
				c5.654-14.597,19.716-25.007,36.326-25.007c21.579,0,39.053,17.49,39.053,39.068c0,16.76-10.648,30.778-25.507,36.277
				l0.116,0.116c0,0-1.03,0.292-2.411,0.749c-0.38,0.117-0.739,0.277-1.108,0.39c-7.508,2.698-24.783,10.983-24.783,30.481v3.116
				v50.247l-154.766,76.595l-90.238,48.175c-4.041,2.602-10.644,8.708-10.765,21.622v9.55c0,8.285,6.705,14.995,15,14.995h91.731
				v264.303c0,8.285,6.71,14.994,14.996,14.994h300.005c8.285,0,14.995-6.709,14.995-14.994V357.628h91.722
				c8.305,0,15.015-6.71,15.015-14.995v-10.036C590.769,318.584,575.481,309.399,575.297,309.302L575.297,309.302z"/>
		</g>
	</g>
</g>
<g>
</g>
<g>
</g>
<g>
</g>
<g>
</g>
<g>
</g>
<g>
</g>
<g>
</g>
<g>
</g>
<g>
</g>
<g>
</g>
<g>
</g>
<g>
</g>
<g>
</g>
<g>
</g>
<g>
</g>
</svg>
